<svg width="172" height="165" viewBox="0 0 172 165" fill="none" xmlns="http://www.w3.org/2000/svg">
<path d="M162.937 82.5L143.283 102.401L117.774 76.8926C119.96 72.2857 119.184 66.622 115.358 62.7959C110.5 57.9377 102.64 57.9221 97.8018 62.7607C92.9635 67.5993 92.9791 75.4583 97.8369 80.3164C101.663 84.1425 107.327 84.9176 111.934 82.7324L133.899 104.698C125.941 104.975 119.08 109.403 113.034 113.338C102.503 120.193 94.7356 125.21 82.6338 112.127C84.936 107.485 84.1953 101.716 80.3164 97.8369C75.4583 92.9791 67.5993 92.9634 62.7607 97.8018C57.9221 102.64 57.9377 110.5 62.7959 115.358C66.5751 119.137 72.1507 119.947 76.7285 117.861C93.5599 135.832 106.821 127.273 117.568 120.278C122.873 116.826 127.63 113.733 132.719 113.099L81.4678 165L0 82.5L81.4678 0L162.937 82.5ZM154.033 113.151C158.643 110.969 164.307 111.744 168.133 115.57C172.991 120.428 173.006 128.287 168.168 133.126C163.329 137.965 155.469 137.949 150.611 133.091C146.815 129.294 146.017 123.683 148.141 119.097C142.279 113.987 137.361 112.52 132.719 113.099L143.283 102.401L154.033 113.151ZM164.628 119.074C161.717 116.163 156.994 116.153 154.095 119.053C151.195 121.952 151.204 126.676 154.115 129.587C157.027 132.498 161.75 132.507 164.649 129.607C167.549 126.708 167.539 121.986 164.628 119.074ZM66.2783 101.32C69.178 98.4206 73.9011 98.4304 76.8125 101.342C79.7235 104.253 79.7333 108.975 76.834 111.875C73.9343 114.775 69.2112 114.765 66.2998 111.854C63.3887 108.942 63.3789 104.22 66.2783 101.32ZM101.32 66.2783C104.22 63.3789 108.942 63.3887 111.854 66.2998C114.765 69.2112 114.775 73.9343 111.875 76.834C108.975 79.7333 104.253 79.7235 101.342 76.8125C98.4304 73.9011 98.4206 69.178 101.32 66.2783Z" fill="black"/>
</svg>
