<svg width="25" height="24" viewBox="0 0 25 24" fill="none" xmlns="http://www.w3.org/2000/svg">
<path d="M6.39896 16.5374C6.31954 16.8391 6.09717 17.0852 5.80333 17.1884C4.68354 17.5853 3.59552 18.0855 2.53927 18.6889C1.72126 19.1573 0.696777 18.5618 0.696777 17.6171V17.0852C0.696777 15.4179 1.53066 13.9492 2.91253 13.195C2.91253 13.195 2.91253 13.195 2.92047 13.195C3.17461 13.06 3.47639 13.0441 3.74641 13.1632C4.31028 13.4093 4.87414 13.6396 5.44595 13.8301C5.70009 13.9175 5.97011 14.0048 6.23218 14.0842C6.57368 14.1874 6.79605 14.5526 6.74046 14.9019C6.64515 15.4576 6.53397 15.9975 6.39896 16.5374Z" fill="#5AED86"/>
<path d="M22.489 10.7972C21.6313 11.2656 20.7497 11.6546 19.8523 11.996C20.7577 12.3374 21.6392 12.7264 22.489 13.1948C23.8629 13.9491 24.6968 15.4178 24.6968 16.9897V17.5217C24.6968 18.5696 23.6802 19.1651 22.8543 18.6887C21.0674 17.6646 19.1534 16.9421 17.1998 16.4975C17.6445 18.4585 18.3672 20.3639 19.3917 22.1581C19.8602 22.9759 19.2646 24 18.3195 24H16.9536C15.8973 24 14.8887 23.4681 14.3407 22.563C14.3328 22.5471 14.3169 22.5313 14.3169 22.5154C13.5942 21.3086 11.8073 21.3086 11.0846 22.5154C11.0767 22.5313 11.0608 22.5471 11.0608 22.563C10.5128 23.4681 9.51213 24 8.24939 24H7.07401C6.12894 24 5.53331 22.9759 6.00187 22.1581C6.05747 22.0708 6.10512 21.9755 6.15277 21.8882C6.16865 21.8644 6.18453 21.8326 6.20042 21.8088C7.34403 19.7208 8.0985 17.474 8.45588 15.1876C8.64648 13.9649 7.9079 12.7741 6.72457 12.4168C6.47838 12.3454 6.24013 12.266 6.00187 12.1786C5.84304 12.1231 5.6842 12.0675 5.52537 12.004C5.53331 12.004 5.53331 12.004 5.54125 11.996C4.97739 11.7896 4.42146 11.5514 3.88142 11.2974C3.80201 11.2577 3.71465 11.218 3.62729 11.1783C3.50816 11.1227 3.39698 11.0592 3.27785 11.0036C3.15078 10.9401 3.02371 10.8687 2.89665 10.8052C1.53066 10.043 0.696777 8.57426 0.696777 7.00232V6.37512C0.696777 5.43037 1.72126 4.83493 2.53927 5.30334C4.32616 6.32749 6.24013 7.04995 8.1938 7.49454C7.74906 5.53358 7.02636 3.62818 6.00187 1.83394C5.53331 1.02415 6.12894 0 7.07401 0H7.60611C9.27388 0 10.7431 0.833609 11.4976 2.21502C11.9661 3.07244 12.3632 3.94575 12.6968 4.84287C13.0224 3.97751 13.4036 3.12008 13.8483 2.29441C14.6107 0.881244 16.0879 0 17.6921 0H18.3195C19.2646 0 19.8602 1.02415 19.3917 1.84188C18.3672 3.62818 17.6366 5.54152 17.1998 7.50248C19.1614 7.05789 21.0674 6.33543 22.8543 5.31128C23.6723 4.84287 24.6968 5.43831 24.6968 6.38306V7.01026C24.6968 8.57426 23.8629 10.043 22.489 10.7972Z" fill="#5AED86"/>
</svg>
