<svg width="42" height="22" viewBox="0 0 42 22" fill="none" xmlns="http://www.w3.org/2000/svg">
<g clip-path="url(#clip0_5078_6205)">
<path d="M20.0686 8.22838C19.7498 7.62354 19.2757 7.14947 18.6382 6.79801C18.0007 6.45472 17.1996 6.2749 16.2352 6.2749C15.5241 6.2749 14.8211 6.36481 14.1264 6.53646C13.4235 6.7081 12.7614 6.94513 12.1484 7.24756L12.9903 9.32364C13.5215 9.06208 14.0365 8.89044 14.5269 8.79236C15.0173 8.70245 15.4669 8.65341 15.8674 8.65341C16.5212 8.65341 16.9871 8.8087 17.2732 9.12747C17.5593 9.44624 17.7064 9.80588 17.7064 10.2146V10.9338C17.0689 10.4679 16.2352 10.2391 15.2135 10.2391C14.4615 10.2391 13.7913 10.3862 13.2028 10.6804C12.6143 10.9747 12.1484 11.3915 11.8051 11.9228C11.4618 12.4541 11.2983 13.0835 11.2983 13.8109C11.2983 14.5302 11.4536 15.1677 11.7724 15.7072C12.0912 16.2466 12.5407 16.6717 13.1374 16.9659C13.7259 17.2602 14.4125 17.4073 15.1971 17.4073C16.1943 17.4073 17.0198 17.1703 17.6737 16.6962C17.8127 16.5899 17.9434 16.4837 18.066 16.3611L18.2867 17.1049H20.5426V10.3045C20.5508 9.52798 20.3873 8.8414 20.0686 8.22838ZM17.2323 14.8571C16.9136 15.1187 16.4967 15.2495 15.9736 15.2495C15.4505 15.2495 15.0337 15.1187 14.7149 14.8571C14.3961 14.5956 14.2408 14.2523 14.2408 13.8191C14.2408 13.3695 14.3961 13.0181 14.7149 12.7647C15.0337 12.5113 15.4505 12.3887 15.9736 12.3887C16.4967 12.3887 16.9136 12.5113 17.2323 12.7647C17.5511 13.0181 17.7064 13.3695 17.7064 13.8191C17.7064 14.2523 17.5511 14.6038 17.2323 14.8571Z" fill="#5AED86"/>
<path d="M6.50817 17.4563C5.68265 17.4563 4.90616 17.3336 4.17054 17.0884C3.43492 16.8432 2.77286 16.4591 2.18437 15.9441C1.59587 15.421 1.10546 14.7426 0.696777 13.9089L2.95268 12.5439C3.40222 13.3123 3.92533 13.8762 4.53018 14.2522C5.13502 14.6282 5.83794 14.8162 6.63078 14.8162C7.35005 14.8162 7.89768 14.6609 8.27366 14.3503C8.64965 14.0397 8.83764 13.6229 8.83764 13.1079C8.83764 12.7728 8.7559 12.4867 8.59243 12.2497C8.42896 12.0127 8.13471 11.7838 7.71786 11.5713C7.30101 11.3506 6.69617 11.1626 5.89516 10.9828C4.70999 10.6967 3.78638 10.3289 3.10798 9.89572C2.43774 9.46252 1.96368 8.95576 1.68578 8.36726C1.40788 7.77877 1.2771 7.13305 1.2771 6.43013C1.2771 5.58008 1.48144 4.82811 1.89829 4.19057C2.30697 3.54486 2.89546 3.0381 3.66378 2.66212C4.43209 2.28614 5.33936 2.09814 6.39375 2.09814C7.60343 2.09814 8.62512 2.33518 9.45065 2.80107C10.2762 3.26696 10.9464 3.9045 11.4613 4.69733L9.20545 6.23396C8.80494 5.71086 8.33905 5.34305 7.83229 5.12236C7.31736 4.90167 6.79425 4.78724 6.26297 4.78724C5.56822 4.78724 5.03693 4.92619 4.66912 5.19592C4.30132 5.47382 4.11332 5.84981 4.11332 6.34022C4.11332 6.77342 4.30132 7.1494 4.66912 7.46C5.03693 7.77059 5.75621 8.05667 6.82694 8.31822C8.03663 8.60429 9.00928 8.96393 9.72855 9.38078C10.4478 9.79763 10.9628 10.3044 11.2734 10.9011C11.584 11.4896 11.7392 12.2088 11.7392 13.0425C11.7392 13.8762 11.5267 14.6282 11.1017 15.2984C10.6767 15.9605 10.0718 16.4918 9.27901 16.8759C8.50252 17.2683 7.57891 17.4563 6.50817 17.4563Z" fill="#5AED86"/>
<path d="M28.781 6.52024L28.4623 7.67271C28.2007 7.37846 27.9065 7.12508 27.5714 6.92074C26.893 6.49572 26.1083 6.2832 25.2092 6.2832C24.2529 6.2832 23.411 6.49572 22.6754 6.93709C21.9398 7.37029 21.3676 7.97513 20.9508 8.74344C20.5421 9.51993 20.3296 10.4108 20.3296 11.4162C20.3296 12.4297 20.5421 13.3125 20.959 14.0808C21.3758 14.8491 21.9561 15.4458 22.6917 15.879C23.4274 16.3122 24.2692 16.5328 25.2256 16.5328C26.1328 16.5328 26.9257 16.3203 27.5959 15.9035C27.7675 15.7972 27.931 15.6746 28.0863 15.5438V16.2222C28.0863 17.1786 27.8574 17.8815 27.4079 18.3474C26.9502 18.8133 26.3535 19.0421 25.6179 19.0421C25.0294 19.0421 24.5308 18.9113 24.1466 18.6416C23.7543 18.3719 23.3783 17.955 23.0187 17.3747L20.9181 18.4618L21.0897 18.8051C21.4248 19.459 21.8253 19.9739 22.2994 20.3499C22.7735 20.734 23.2966 21.0119 23.8687 21.1836C24.4409 21.3552 25.013 21.4451 25.5934 21.4451C26.6804 21.4451 27.6122 21.2245 28.4132 20.7831C29.2061 20.3417 29.8273 19.6878 30.2686 18.8214C30.71 17.955 30.9307 16.9007 30.9307 15.6583V6.52024H28.781ZM27.5223 13.3043C27.0564 13.7947 26.4598 14.0399 25.7241 14.0399C24.9885 14.0399 24.3837 13.7947 23.9178 13.3043C23.4519 12.8139 23.2149 12.1845 23.2149 11.4162C23.2149 10.6234 23.4519 9.97765 23.9178 9.48724C24.3837 8.99682 24.9885 8.75162 25.7241 8.75162C26.4598 8.75162 27.0564 8.99682 27.5223 9.48724C27.9882 9.97765 28.2171 10.6152 28.2171 11.3917C28.2171 12.1763 27.98 12.8139 27.5223 13.3043Z" fill="#5AED86"/>
<path d="M40.6489 8.95596C40.2157 8.12225 39.6027 7.46837 38.818 6.9943C38.0334 6.52024 37.1016 6.2832 36.0309 6.2832C34.9765 6.2832 34.0529 6.52024 33.26 6.98613C32.4672 7.45202 31.8542 8.10591 31.421 8.93961C30.9878 9.77331 30.7671 10.7378 30.7671 11.833C30.7671 12.9446 30.9878 13.9091 31.421 14.7347C31.8542 15.5602 32.4672 16.1977 33.26 16.6554C34.0529 17.1132 34.9765 17.3338 36.0309 17.3338C37.1833 17.3338 38.1723 17.0968 38.9897 16.6309C39.807 16.165 40.4528 15.4866 40.9268 14.6039L38.957 13.4759C38.6546 13.9255 38.2949 14.3015 37.8699 14.6039C37.4531 14.9063 36.8727 15.0616 36.1371 15.0616C35.2952 15.0616 34.6414 14.8164 34.1591 14.3342C33.7423 13.9173 33.5052 13.3533 33.448 12.6586H41.2374C41.2701 12.5605 41.2865 12.4297 41.2946 12.2826C41.3028 12.1273 41.3028 11.972 41.3028 11.8167C41.2946 10.7378 41.0821 9.78966 40.6489 8.95596ZM36.0309 8.51458C36.9299 8.51458 37.5838 8.79248 38.0089 9.35646C38.2622 9.69157 38.4339 10.0757 38.5401 10.5253H33.4889C33.587 10.0103 33.7995 9.58532 34.1428 9.23386C34.625 8.75162 35.2544 8.51458 36.0309 8.51458Z" fill="#5AED86"/>
</g>
<defs>
<clipPath id="clip0_5078_6205">
<rect width="40.6062" height="20.8906" fill="white" transform="translate(0.696777 0.554688)"/>
</clipPath>
</defs>
</svg>
